PathFileType	4	(X/Y/Z)	s05c0203.trc
DataRate	CameraRate	NumFrames	NumMarkers	Units	OrigDataRate	OrigDataStartFrame	OrigNumFrames
200	200	4	47	mm	200	1250	2000
Frame#	Time	racr			lacr			c7			jug			rlel			rdr			llel			ldr			s2			lic			ric			lasi			rasi			rpsi			lpsi			rgt			lgt			rth1			rth2			rth3			rth4			rlfc			rsh1			rsh2			rsh3			rsh4			rlmal			rcal			rtoe			rmt5			lth1			lth2			lth4			lth3			llfc			lmfc			lsh1			lsh2			lsh3			lsh4			llmal			lcal			ltoe			lmt5			SBIKE			LBIKE			RBIKE			
		X1	Y1	Z1	X2	Y2	Z2	X3	Y3	Z3	X4	Y4	Z4	X5	Y5	Z5	X6	Y6	Z6	X7	Y7	Z7	X8	Y8	Z8	X9	Y9	Z9	X10	Y10	Z10	X11	Y11	Z11	X12	Y12	Z12	X13	Y13	Z13	X14	Y14	Z14	X15	Y15	Z15	X16	Y16	Z16	X17	Y17	Z17	X18	Y18	Z18	X19	Y19	Z19	X20	Y20	Z20	X21	Y21	Z21	X22	Y22	Z22	X23	Y23	Z23	X24	Y24	Z24	X25	Y25	Z25	X26	Y26	Z26	X27	Y27	Z27	X28	Y28	Z28	X29	Y29	Z29	X30	Y30	Z30	X31	Y31	Z31	X32	Y32	Z32	X33	Y33	Z33	X34	Y34	Z34	X35	Y35	Z35	X36	Y36	Z36	X37	Y37	Z37	X38	Y38	Z38	X39	Y39	Z39	X40	Y40	Z40	X41	Y41	Z41	X42	Y42	Z42	X43	Y43	Z43	X44	Y44	Z44	X45	Y45	Z45	X46	Y46	Z46	X47	Y47	Z47	
1250	6.2500	490.117099	1245.645802	-151.789801	497.998414	1230.484012	-399.801206	474.999274	1324.882015	-283.835119	403.677227	1178.025693	-277.926713	487.778046	1064.023653	61.778065	662.290797	960.135667	-63.623573	470.615930	1060.563447	-648.365038	656.064761	966.564683	-504.813351	-117.515032	1189.210373	-287.862118	32.202449	1180.989258	-435.673965	23.884177	1216.266678	-152.623048	70.779107	1124.180536	-392.293267	67.906745	1156.244382	-178.024162	-81.247636	1240.515748	-256.985649	-77.196013	1234.713998	-341.794737	-0.158048	1110.544615	-113.339783	-45.430634	1080.046839	-450.885538	108.893578	1070.459784	-114.406057	197.423580	1063.631357	-124.385459	268.960720	1013.073820	-130.126111	206.759818	1095.221664	-141.528701	400.935920	948.086281	-167.537830	328.756866	871.686604	-136.306895	303.241149	786.854466	-138.666002	242.666741	726.944104	-133.031274	329.373231	770.829366	-162.275232	174.959263	602.819233	-126.825491	97.067004	584.041903	-168.112028	375.818802	486.275508	-162.803172	273.245164	493.207903	-96.916816	32.554645	956.369645	-466.351571	96.904166	899.884725	-463.240993	127.790397	918.325843	-453.803442	124.380544	813.597889	-460.168751	193.466202	686.408054	-429.350237	180.080313	675.140601	-320.866762	131.773754	574.883396	-457.427167	127.024154	488.457955	-446.961458	78.027943	413.923775	-445.446732	156.701107	480.672461	-423.630454	51.928008	297.591733	-439.436122	-14.361741	281.708351	-394.624847	247.203935	146.059233	-400.940265	137.681828	164.371137	-463.188833	-264.483187	891.955205	-285.424688	-53.522525	79.400024	-474.697637	-53.475112	79.359174	-77.108177	
1251	6.2550	488.858760	1244.841252	-150.590786	498.455985	1228.577071	-397.986049	474.565771	1324.340797	-282.513113	403.083524	1177.543936	-277.328398	486.085020	1062.692582	62.179363	661.335658	959.928899	-63.460970	471.598146	1061.435592	-648.801796	655.983175	966.436691	-505.065035	-117.998840	1189.614519	-289.917846	31.680452	1180.935396	-436.360807	23.163932	1216.923839	-153.413529	70.113494	1123.988391	-392.968198	67.165341	1156.473536	-178.545254	-81.483679	1241.149990	-257.844145	-77.393113	1235.041335	-342.735410	-1.332953	1111.328024	-114.188452	-45.428864	1080.019362	-451.570931	107.990167	1069.422359	-114.291196	196.443972	1061.171148	-124.355660	267.231968	1009.688412	-129.529855	206.270616	1092.556844	-141.631378	397.973910	941.879367	-167.100350	326.588804	864.290558	-136.633160	301.939677	779.073878	-137.851432	242.549392	717.954020	-132.238855	328.487433	763.421117	-161.287515	177.546507	592.864148	-126.493923	100.504827	570.497030	-167.665123	383.894175	487.185912	-161.844144	280.857188	488.460631	-95.997326	35.316926	957.316529	-466.398079	101.165407	902.656321	-462.029044	131.406533	921.919739	-451.723007	130.921483	817.101446	-458.491441	201.706966	690.823220	-428.293019	187.542994	679.437788	-320.252250	137.229574	580.542426	-456.599122	129.972575	494.203177	-446.006701	78.874851	421.149816	-444.795192	159.266520	485.647106	-422.588301	49.176262	305.672456	-438.899857	-17.646374	292.441645	-393.823174	238.148830	146.148323	-401.076645	129.354749	169.220122	-462.771019	-264.602424	892.032211	-285.310676	-53.512648	79.441449	-474.680825	-53.464371	79.365318	-77.079615	
1252	6.2600	487.737148	1244.124773	-149.507711	499.055926	1226.967777	-396.328644	474.156184	1323.934810	-281.364139	402.732082	1177.093621	-276.935632	484.367797	1061.416915	62.408162	660.389457	959.708270	-63.253518	472.487616	1062.379997	-649.238938	655.830732	966.337480	-505.298967	-118.570905	1189.838219	-290.918829	31.282738	1180.501911	-437.056413	22.457206	1217.259358	-154.102280	69.584443	1123.608356	-393.665161	66.508020	1156.581660	-178.819509	-82.408395	1242.017876	-258.611926	-77.620435	1235.070120	-343.723749	-2.566283	1111.403964	-115.264438	-45.332567	1079.790638	-452.282588	107.081250	1067.774379	-114.203132	195.355616	1058.115296	-123.998713	265.307977	1005.217486	-129.145636	205.722604	1088.962726	-141.782511	394.976892	935.243079	-166.481089	323.505737	856.022325	-135.816455	300.639816	770.163403	-136.810795	242.498510	707.842040	-131.452111	327.501448	755.076492	-160.182048	180.185407	582.048134	-125.867693	104.228761	556.243638	-167.476756	391.379189	486.859208	-160.224731	288.117602	482.897139	-94.873815	38.465103	958.439938	-466.378279	105.955760	905.836560	-461.309157	135.190316	925.652590	-449.573890	137.807645	820.981869	-456.932127	210.017199	695.421801	-427.159908	195.250663	683.850965	-319.348908	143.032977	586.471686	-455.768714	133.309436	500.253392	-445.094701	80.133589	428.754652	-444.215760	162.210072	490.981443	-421.446977	47.062618	314.214168	-438.585741	-20.343385	303.728033	-393.273679	229.193818	146.741579	-401.127414	121.387332	174.526962	-462.399774	-264.539158	892.053534	-285.273623	-53.505368	79.469183	-474.663793	-53.469257	79.356807	-77.068076	
1253	6.2650	486.668174	1243.638683	-148.471485	499.709250	1225.610646	-394.875404	473.779329	1323.663937	-280.276992	402.483405	1176.750398	-276.529834	482.560928	1060.263323	62.506550	659.424523	959.449810	-62.929492	473.261183	1063.301345	-649.453503	655.546410	966.133999	-505.373624	-119.150085	1189.777257	-292.140762	30.826109	1179.780623	-437.547549	21.747100	1217.292413	-154.839141	68.971267	1122.994624	-394.054660	65.806584	1156.398991	-179.045180	-82.842530	1241.966029	-259.333875	-77.900122	1234.780767	-344.673698	-4.027069	1110.953104	-116.265327	-45.019211	1079.308790	-453.090845	106.056585	1065.248065	-114.067905	194.168054	1054.202281	-123.539939	263.316351	1000.014312	-128.817549	205.161066	1084.847038	-141.618636	391.480982	927.152069	-165.394546	320.358091	846.675587	-134.558086	299.377657	760.292061	-135.719048	242.559446	696.685673	-130.591174	326.469476	745.775001	-158.821379	183.123291	570.491580	-125.327102	108.461720	541.414427	-167.536113	398.485410	485.423227	-158.194625	294.966890	476.170885	-93.622980	42.048178	959.867034	-466.098827	110.742453	909.085723	-459.883490	139.117904	929.596003	-447.274644	144.863549	825.029565	-455.425069	218.234668	700.331544	-426.116958	203.022207	688.320484	-318.319264	149.119223	592.591115	-454.879391	136.926805	506.677956	-444.286665	81.787392	436.706422	-443.776473	165.417991	496.559940	-420.374513	45.345585	323.009455	-438.550605	-22.546264	315.210001	-392.981469	220.321204	147.975516	-401.067905	113.766810	180.338825	-462.059771	-264.550627	892.051153	-285.112630	-53.489647	79.479342	-474.657105	-53.466846	79.323504	-77.066234	
